<svg width="60" height="32" viewBox="0 0 128 32" fill="none" class="ml-4"
    xmlns="http://www.w3.org/2000/svg">
    <path
        d="M127.697 7.81213C127.697 5.96834 125.926 5.31105 125.926 5.31105L114.762 0.753341L112.85 0V6.21505H115.487V3.42958L124.35 7.03243C125.832 7.64075 125.951 7.98917 125.951 8.93461V10.1023H125.936L121.939 11.7408L117.207 9.81225V10.7539H113.707L119.045 12.9292L115.498 14.3907V16.0443C116.626 16.8955 117.53 18.0069 118.135 19.2836V15.6827L123.785 13.368L124.855 12.9273L125.953 12.4791V16.92C125.953 17.8617 125.834 18.2139 124.352 18.8222L118.753 21.118C118.89 21.76 118.959 22.4146 118.96 23.071C118.96 23.1859 118.96 23.2989 118.951 23.4119L125.938 20.5473C125.938 20.5473 127.702 19.8882 127.708 18.0463V7.81025L127.697 7.81213Z"
        fill="#12AB4B" data-darkreader-inline-fill="" style="--darkreader-inline-fill: #59ee90;"></path>
    <path
        d="M112.852 10.4111L113.707 10.7595H117.206V9.81598L115.491 9.11726V6.2056H112.852V7.08889V10.4111Z"
        fill="#272727" data-darkreader-inline-fill="" style="--darkreader-inline-fill: #1c1c1c;"></path>
    <path
        d="M118.741 21.118L118.135 21.3704V19.2855C117.531 18.0079 116.626 16.8957 115.498 16.0443V17.873C115.137 17.8863 114.794 18.0392 114.543 18.2996C114.292 18.5601 114.152 18.9077 114.152 19.2695C114.152 19.6312 114.292 19.9789 114.543 20.2393C114.794 20.4998 115.137 20.6527 115.498 20.666V24.8263L118.939 23.4176C118.939 23.3046 118.939 23.1916 118.939 23.0767C118.939 22.4203 118.87 21.7657 118.734 21.1236M115.532 20.6377V17.8956C116.191 17.9615 116.737 18.3947 116.85 19.003C116.98 19.7563 116.395 20.4814 115.532 20.6321"
        fill="#12AB4B" data-darkreader-inline-fill="" style="--darkreader-inline-fill: #59ee90;"></path>
</svg>