<svg width="17" height="20" viewBox="0 0 17 20" fill="none" xmlns="http://www.w3.org/2000/svg">
<path d="M4.5 15C4.5 14.3794 4.05499 13.7673 3.40534 13.5671L3.40534 12.1006L3.40534 11.4221L11.767 8.63493C12.1482 8.50785 12.5388 8.54682 12.8316 8.70011C13.1155 8.84879 13.3083 9.10195 13.3418 9.44682C13.3939 9.98397 13.3883 10.5073 13.3819 11.061L13.3817 11.072C13.3756 11.6027 13.3691 12.1621 13.4227 12.7428C13.5097 13.6841 13.1106 14.5701 12.3873 14.8852L3.40537 18.7985L3.40536 16.429C3.64118 16.3519 3.84944 16.2195 4.01538 16.0614C4.29283 15.7972 4.5 15.4153 4.5 15Z" fill="#12AB4B" stroke="#12AB4B"/>
<path d="M3.40537 0.76324L3.40534 8.13962L11.767 10.9268C12.1482 11.0539 12.5388 11.0149 12.8316 10.8616C13.1156 10.7129 13.3083 10.4597 13.3418 10.1148C13.3933 9.58388 13.3884 9.06621 13.3821 8.51932L13.3818 8.49075C13.3756 7.95978 13.3691 7.40002 13.4227 6.81924C13.5096 5.87788 13.1105 4.99166 12.3873 4.67658L3.40537 0.76324Z" fill="#12AB4B" fill-opacity="0.19" stroke="#12AB4B"/>
</svg>
