<svg width="17" height="20" viewBox="0 0 17 20" fill="none" xmlns="http://www.w3.org/2000/svg">
<path d="M3.40537 18.7985L3.40534 11.4221L11.767 8.63493C12.1482 8.50785 12.5388 8.54684 12.8316 8.70016C13.1156 8.84888 13.3083 9.10208 13.3418 9.44695C13.3933 9.97788 13.3884 10.4955 13.3821 11.0424L13.3818 11.071C13.3756 11.602 13.3691 12.1617 13.4227 12.7425C13.5096 13.6839 13.1105 14.5701 12.3873 14.8852L3.40537 18.7985Z" fill="#12AB4B" stroke="#12AB4B"/>
<path d="M3.40537 0.76324L3.40534 8.13962L11.767 10.9268C12.1482 11.0539 12.5388 11.0149 12.8316 10.8616C13.1156 10.7129 13.3083 10.4597 13.3418 10.1148C13.3933 9.58388 13.3884 9.06621 13.3821 8.51932L13.3818 8.49075C13.3756 7.95978 13.3691 7.40002 13.4227 6.81924C13.5096 5.87788 13.1105 4.99166 12.3873 4.67658L3.40537 0.76324Z" stroke="#12AB4B"/>
</svg>
