<svg width="22" height="10" viewBox="0 0 22 10" fill="none" xmlns="http://www.w3.org/2000/svg">
<path d="M3.95403 4.79392C3.92051 4.79153 3.88684 4.79573 3.85493 4.80631L6.03612 1.94287H1.00411V3.35601H3.33418L1.59919 5.54958L2.49135 6.4048C2.70638 6.19069 2.97493 6.08363 3.29702 6.08363C3.66055 6.08363 3.96008 6.20338 4.1956 6.44288C4.43112 6.68238 4.54888 6.9592 4.54888 7.27333C4.54888 7.61224 4.43112 7.89938 4.1956 8.13475C3.96008 8.37012 3.66055 8.48788 3.29702 8.48803C3.04671 8.48977 2.8013 8.41868 2.59068 8.2834C2.37565 8.14713 2.21866 7.97569 2.11971 7.76907L0.805908 8.57475C1.34287 9.52494 2.17324 10 3.29702 10C4.15637 10 4.8546 9.73148 5.39172 9.19437C5.92883 8.65726 6.19739 8.01691 6.19739 7.27333C6.19739 6.6206 5.97219 6.05473 5.52179 5.57573C5.07139 5.09673 4.54881 4.83674 3.95403 4.79575" fill="white"/>
<path d="M10.0147 4.43444L11.8242 1.94287H9.77883L7.21339 5.57436C6.86623 6.0373 6.69272 6.57028 6.69287 7.17331C6.69287 7.95833 6.96135 8.62552 7.49831 9.17487C8.03527 9.72422 8.73351 9.99897 9.59301 9.99912C10.4273 9.99912 11.1192 9.72231 11.6689 9.16868C12.2186 8.61505 12.4933 7.94977 12.4932 7.17285C12.4932 6.46246 12.2598 5.85071 11.793 5.33761C11.3262 4.82451 10.7334 4.52291 10.0144 4.43284M10.4792 8.12006C10.2437 8.364 9.94828 8.48589 9.59301 8.48574C9.22107 8.48574 8.91948 8.36385 8.68824 8.12006C8.457 7.87628 8.34138 7.5607 8.34138 7.17331C8.34138 6.80152 8.4612 6.49373 8.70086 6.24995C8.94051 6.00617 9.23797 5.88428 9.59324 5.88428C9.94026 5.88428 10.2336 6.00411 10.4732 6.24376C10.7129 6.48341 10.8326 6.79326 10.8325 7.17331C10.8325 7.56162 10.7148 7.87766 10.4794 8.12144" fill="white"/>
<path d="M17.3721 6.46995C17.2586 6.46628 17.1509 6.4186 17.0719 6.337C16.9929 6.2554 16.9488 6.14628 16.9488 6.03271C16.9488 5.91913 16.9929 5.81001 17.0719 5.72841C17.1509 5.64682 17.2586 5.59914 17.3721 5.59546V5.02332C16.9489 4.70552 16.4545 4.54639 15.889 4.54593C15.4098 4.54593 15.0174 4.66163 14.7117 4.89302L14.9347 3.36862H16.8144L16.5462 3.25943V1.94287H13.683L13.1253 6.10749L14.3029 6.66518C14.5589 6.16049 14.9555 5.90814 15.4926 5.90814C15.8563 5.90814 16.1661 6.03209 16.4221 6.28001C16.5458 6.39564 16.6439 6.53588 16.71 6.69171C16.7762 6.84754 16.809 7.0155 16.8064 7.18478C16.8064 7.5402 16.6804 7.84608 16.4283 8.1024C16.1763 8.35872 15.8644 8.48681 15.4926 8.48665C15.2323 8.49014 14.9765 8.41914 14.7553 8.28202C14.5361 8.14576 14.3729 7.97432 14.2657 7.7677L12.9519 8.57337C13.5052 9.52357 14.3521 9.99866 15.4926 9.99866C16.3519 9.99866 17.0605 9.73217 17.6182 9.19919C18.1505 8.69067 18.4285 8.0673 18.4524 7.32908L17.3721 7.77275V6.46995Z" fill="white"/>
<path d="M17.3862 5.603V6.45983C17.6537 6.41234 17.8372 6.18454 17.7964 5.9494C17.7631 5.75899 17.5922 5.62341 17.3862 5.603Z" fill="white"/>
<path d="M17.9096 3.07336V1.94308H17.3728V2.85451L17.9096 3.07336Z" fill="white"/>
<path d="M21.1937 2.44589C21.1918 1.86916 20.6396 1.66293 20.6396 1.66293L17.1442 0.236027L16.5461 -3.05176e-05V1.39934V1.9428H17.372V1.07404L20.1428 2.20272C20.6064 2.39289 20.6433 2.50094 20.6433 2.79917V3.16438L20.6392 3.16599L19.3908 3.67733L17.9088 3.07354V3.36856H16.8145L18.4851 4.04897L17.372 4.50549V5.02325C17.4955 5.11631 17.6106 5.21993 17.7161 5.33295C17.9127 5.54112 18.0753 5.77895 18.1979 6.03768V4.91016L19.9643 4.18524L20.2999 4.04759L20.644 3.90674V5.29694C20.644 5.59333 20.6071 5.70252 20.1434 5.89339L18.3906 6.61212C18.4333 6.8131 18.4549 7.018 18.455 7.22348C18.455 7.2595 18.4536 7.29483 18.4525 7.33015L20.6399 6.43318C20.6399 6.43318 21.1921 6.22671 21.1939 5.65022V2.44589H21.1937Z" fill="white"/>
<path d="M16.5466 3.25918L16.8146 3.36838H17.9093V3.07336L17.3725 2.85451V1.94308H16.5466V2.21975V3.25918Z" fill="white"/>
<path d="M18.3906 6.61187L18.1981 6.6917V6.0379C18.0756 5.77911 17.913 5.54127 17.7164 5.33316C17.6109 5.22015 17.4958 5.11652 17.3723 5.02347V5.5956C17.2588 5.59928 17.1511 5.64696 17.0721 5.72856C16.9931 5.81016 16.949 5.91928 16.949 6.03285C16.949 6.14642 16.9931 6.25555 17.0721 6.33714C17.1511 6.41874 17.2588 6.46642 17.3723 6.4701V7.77289L18.4523 7.32991C18.4535 7.29458 18.4548 7.25925 18.4548 7.22323C18.4548 7.01776 18.4331 6.81285 18.3904 6.61187M17.3863 6.46V5.60317C17.5927 5.62359 17.7632 5.75917 17.7965 5.94958C17.8373 6.18449 17.6538 6.41252 17.3863 6.46Z" fill="#12AB4B"/>
</svg>
